<svg width="38" height="38" viewBox="0 0 38 38" fill="none" xmlns="http://www.w3.org/2000/svg">
<path d="M19 38C29.4934 38 38 29.4934 38 19C38 8.50659 29.4934 0 19 0C8.50659 0 0 8.50659 0 19C0 29.4934 8.50659 38 19 38Z" fill="#3A589C"/>
<path d="M37.25 19C37.25 29.0792 29.0792 37.25 19 37.25C8.9208 37.25 0.75 29.0792 0.75 19C0.75 8.9208 8.9208 0.75 19 0.75C29.0792 0.75 37.25 8.9208 37.25 19Z" stroke="white" stroke-opacity="0.49983" stroke-width="1.5"/>
<path fill-rule="evenodd" clip-rule="evenodd" d="M21.5 13H23.6875C23.875 13 24 12.88 24 12.7V10.3C24 10.12 23.875 10 23.6875 10H21.1875C18.875 10 17.125 11.68 17.125 13.9V16.6H14.3125C14.125 16.6 14 16.72 14 16.9V19.3C14 19.48 14.125 19.6 14.3125 19.6H17.125V27.7C17.125 27.88 17.25 28 17.4375 28H19.9375C20.125 28 20.25 27.88 20.25 27.7V19.6H23.0625C23.1875 19.6 23.3125 19.48 23.375 19.36L24 16.96C24 16.9 24 16.78 23.9375 16.72C23.875 16.66 23.8125 16.6 23.6875 16.6H20.25V14.2C20.25 13.54 20.8125 13 21.5 13Z" fill="white"/>
</svg>
