<svg width="10" height="18" viewBox="0 0 10 18" fill="none" xmlns="http://www.w3.org/2000/svg">
<path fill-rule="evenodd" clip-rule="evenodd" d="M7.5 3H9.6875C9.875 3 10 2.88 10 2.7V0.3C10 0.12 9.875 0 9.6875 0H7.1875C4.875 0 3.125 1.68 3.125 3.9V6.6H0.3125C0.125 6.6 0 6.72 0 6.9V9.3C0 9.48 0.125 9.6 0.3125 9.6H3.125V17.7C3.125 17.88 3.25 18 3.4375 18H5.9375C6.125 18 6.25 17.88 6.25 17.7V9.6H9.0625C9.1875 9.6 9.3125 9.48 9.375 9.36L10 6.96C10 6.9 10 6.78 9.9375 6.72C9.875 6.66 9.8125 6.6 9.6875 6.6H6.25V4.2C6.25 3.54 6.8125 3 7.5 3Z" fill="white"/>
</svg>
