<svg width="16" height="16" viewBox="0 0 16 16" fill="none" xmlns="http://www.w3.org/2000/svg">
<path fill-rule="evenodd" clip-rule="evenodd" d="M7.84 1.06667C11.7333 1.12 14.88 4.26667 14.9333 8.16C15.6267 9.01333 16 10.08 16 11.2C16 13.8667 13.8667 16 11.2 16C10.4 16 9.6 15.7867 8.85333 15.36C8.77301 15.37 8.69647 15.3801 8.62263 15.3898C8.30429 15.4315 8.03638 15.4667 7.73333 15.4667C3.78667 15.4667 0.533333 12.2133 0.533333 8.26667C0.533333 7.96362 0.568476 7.69571 0.610234 7.37737C0.619919 7.30354 0.629959 7.22699 0.64 7.14667C0.213333 6.45333 0 5.6 0 4.8C0 2.13333 2.13333 0 4.8 0C5.92 0 6.98667 0.373333 7.84 1.06667ZM3.73333 10.88C3.73333 11.7333 5.28 13.3333 7.73333 13.3333C10.1867 13.3333 11.7333 12.0533 11.7333 9.97333C11.7333 7.84 9.49333 7.2 7.73333 6.72C6.61333 6.4 5.54667 6.08 5.54667 5.54667C5.54667 4.64 6.08 4.48 7.2 4.48H7.36C8.21333 4.48 9.01333 4.69333 9.28 5.01333C9.33333 5.49333 9.76 5.86667 10.24 5.86667C10.7733 5.86667 11.2 5.44 11.2 4.90667C11.2 3.36 9.28 2.66667 7.46667 2.66667C5.86667 2.66667 3.78667 2.98667 3.78667 5.65333C3.78667 7.77961 5.79994 8.31645 7.39744 8.74243L7.41333 8.74667C8.8 9.12 9.65333 9.38667 9.65333 10.08C9.65333 10.9333 9.12 11.2533 7.78667 11.2533C6.66667 11.2533 5.86667 10.9867 5.65333 10.5067C5.6 9.97333 5.17333 9.6 4.69333 9.6C4.16 9.6 3.73333 10.0267 3.73333 10.56V10.88Z" fill="white"/>
</svg>
