<svg width="38" height="38" viewBox="0 0 38 38" fill="none" xmlns="http://www.w3.org/2000/svg">
<path d="M19 38C29.4934 38 38 29.4934 38 19C38 8.50659 29.4934 0 19 0C8.50659 0 0 8.50659 0 19C0 29.4934 8.50659 38 19 38Z" fill="#00AEF2"/>
<path d="M37.25 19C37.25 29.0792 29.0792 37.25 19 37.25C8.9208 37.25 0.75 29.0792 0.75 19C0.75 8.9208 8.9208 0.75 19 0.75C29.0792 0.75 37.25 8.9208 37.25 19Z" stroke="white" stroke-opacity="0.49983" stroke-width="1.5"/>
<path fill-rule="evenodd" clip-rule="evenodd" d="M18.84 12.0667C22.7333 12.12 25.88 15.2667 25.9333 19.16C26.6267 20.0133 27 21.08 27 22.2C27 24.8667 24.8667 27 22.2 27C21.4 27 20.6 26.7867 19.8533 26.36C19.773 26.37 19.6965 26.3801 19.6226 26.3898C19.3043 26.4315 19.0364 26.4667 18.7333 26.4667C14.7867 26.4667 11.5333 23.2133 11.5333 19.2667C11.5333 18.9636 11.5685 18.6957 11.6102 18.3774C11.6199 18.3035 11.63 18.227 11.64 18.1467C11.2133 17.4533 11 16.6 11 15.8C11 13.1333 13.1333 11 15.8 11C16.92 11 17.9867 11.3733 18.84 12.0667ZM14.7333 21.88C14.7333 22.7333 16.28 24.3333 18.7333 24.3333C21.1867 24.3333 22.7333 23.0533 22.7333 20.9733C22.7333 18.84 20.4933 18.2 18.7333 17.72C17.6133 17.4 16.5467 17.08 16.5467 16.5467C16.5467 15.64 17.08 15.48 18.2 15.48H18.36C19.2133 15.48 20.0133 15.6933 20.28 16.0133C20.3333 16.4933 20.76 16.8667 21.24 16.8667C21.7733 16.8667 22.2 16.44 22.2 15.9067C22.2 14.36 20.28 13.6667 18.4667 13.6667C16.8667 13.6667 14.7867 13.9867 14.7867 16.6533C14.7867 18.7796 16.7999 19.3165 18.3974 19.7424L18.4133 19.7467C19.8 20.12 20.6533 20.3867 20.6533 21.08C20.6533 21.9333 20.12 22.2533 18.7867 22.2533C17.6667 22.2533 16.8667 21.9867 16.6533 21.5067C16.6 20.9733 16.1733 20.6 15.6933 20.6C15.16 20.6 14.7333 21.0267 14.7333 21.56V21.88Z" fill="white"/>
</svg>
