<svg width="18" height="15" viewBox="0 0 18 15" fill="none" xmlns="http://www.w3.org/2000/svg">
<path fill-rule="evenodd" clip-rule="evenodd" d="M17.5268 2.14132C17.4128 2.01607 17.229 1.98457 17.0783 2.06182C16.9845 2.10982 16.8083 2.17282 16.599 2.23507C16.863 1.88407 17.0753 1.49107 17.169 1.13782C17.2095 0.98557 17.1503 0.82507 17.0213 0.73432C16.8923 0.64432 16.7205 0.64432 16.5915 0.73432C16.3883 0.87607 15.4073 1.30207 14.787 1.44007C13.3853 0.21232 11.754 0.0848195 10.0583 1.07482C8.67977 1.87957 8.37977 3.51607 8.43827 4.51357C5.28302 4.20982 3.32177 2.54332 2.21777 1.16407C2.14052 1.06732 2.01602 1.01632 1.89902 1.02382C1.77602 1.03282 1.66502 1.10107 1.60202 1.20682C1.08002 2.08807 0.935267 3.06232 1.18502 4.02457C1.32152 4.54957 1.56002 5.01232 1.83677 5.38732C1.70402 5.32207 1.57577 5.24032 1.45502 5.14282C1.34402 5.05132 1.18877 5.03407 1.05752 5.09482C0.927017 5.15707 0.843767 5.28907 0.843767 5.43382C0.843767 7.08607 1.87727 8.18857 2.84252 8.76457C2.68652 8.74582 2.52377 8.71132 2.35952 8.66107C2.21852 8.61832 2.06552 8.66107 1.96802 8.77207C1.87052 8.88232 1.84727 9.03982 1.90802 9.17407C2.45027 10.3733 3.47777 11.1983 4.74902 11.4976C3.63902 12.1493 2.15327 12.4688 0.792767 12.3121C0.616517 12.2873 0.448517 12.3991 0.393017 12.5686C0.337517 12.7381 0.410267 12.9241 0.565517 13.0111C2.62952 14.1698 4.49552 14.5838 6.10802 14.5838C8.45477 14.5838 10.266 13.7078 11.3685 12.9751C14.3408 11.0026 16.1933 7.46107 15.9353 4.29232C16.4115 3.94057 17.124 3.29107 17.5658 2.59282C17.6573 2.45182 17.6408 2.26582 17.5268 2.14132Z" fill="white"/>
</svg>
