<svg width="38" height="38" viewBox="0 0 38 38" fill="none" xmlns="http://www.w3.org/2000/svg">
<path d="M19 38C29.4934 38 38 29.4934 38 19C38 8.50659 29.4934 0 19 0C8.50659 0 0 8.50659 0 19C0 29.4934 8.50659 38 19 38Z" fill="#19A9E3"/>
<path d="M37.25 19C37.25 29.0792 29.0792 37.25 19 37.25C8.9208 37.25 0.75 29.0792 0.75 19C0.75 8.9208 8.9208 0.75 19 0.75C29.0792 0.75 37.25 8.9208 37.25 19Z" stroke="white" stroke-opacity="0.49983" stroke-width="1.5"/>
<path fill-rule="evenodd" clip-rule="evenodd" d="M27.5268 14.1413C27.4128 14.0161 27.229 13.9846 27.0783 14.0618C26.9845 14.1098 26.8083 14.1728 26.599 14.2351C26.863 13.8841 27.0753 13.4911 27.169 13.1378C27.2095 12.9856 27.1503 12.8251 27.0213 12.7343C26.8923 12.6443 26.7205 12.6443 26.5915 12.7343C26.3883 12.8761 25.4073 13.3021 24.787 13.4401C23.3853 12.2123 21.754 12.0848 20.0583 13.0748C18.6798 13.8796 18.3798 15.5161 18.4383 16.5136C15.283 16.2098 13.3218 14.5433 12.2178 13.1641C12.1405 13.0673 12.016 13.0163 11.899 13.0238C11.776 13.0328 11.665 13.1011 11.602 13.2068C11.08 14.0881 10.9353 15.0623 11.185 16.0246C11.3215 16.5496 11.56 17.0123 11.8368 17.3873C11.704 17.3221 11.5758 17.2403 11.455 17.1428C11.344 17.0513 11.1888 17.0341 11.0575 17.0948C10.927 17.1571 10.8438 17.2891 10.8438 17.4338C10.8438 19.0861 11.8773 20.1886 12.8425 20.7646C12.6865 20.7458 12.5238 20.7113 12.3595 20.6611C12.2185 20.6183 12.0655 20.6611 11.968 20.7721C11.8705 20.8823 11.8473 21.0398 11.908 21.1741C12.4503 22.3733 13.4778 23.1983 14.749 23.4976C13.639 24.1493 12.1533 24.4688 10.7928 24.3121C10.6165 24.2873 10.4485 24.3991 10.393 24.5686C10.3375 24.7381 10.4103 24.9241 10.5655 25.0111C12.6295 26.1698 14.4955 26.5838 16.108 26.5838C18.4548 26.5838 20.266 25.7078 21.3685 24.9751C24.3408 23.0026 26.1933 19.4611 25.9353 16.2923C26.4115 15.9406 27.124 15.2911 27.5658 14.5928C27.6573 14.4518 27.6408 14.2658 27.5268 14.1413Z" fill="white"/>
</svg>
