<?xml version="1.0" encoding="UTF-8"?>
<svg width="14px" height="17px" viewBox="0 0 14 17" version="1.1" xmlns="http://www.w3.org/2000/svg" xmlns:xlink="http://www.w3.org/1999/xlink">
    <!-- Generator: Sketch 53.1 (72631) - https://sketchapp.com -->
    <title>building</title>
    <desc>Created with Sketch.</desc>
    <g id="Page-1" stroke="none" stroke-width="1" fill="none" fill-rule="evenodd" opacity="0.600000024">
        <g id="Job-page" transform="translate(-161.000000, -1727.000000)">
            <g id="Group-8-Copy-3" transform="translate(135.000000, 1554.000000)">
                <g id="Group-6" transform="translate(24.000000, 172.000000)">
                    <g id="building">
                        <rect id="bound" x="0" y="0" width="18" height="18"></rect>
                        <path d="M10.125,15.75 L10.125,13.5 C10.125,13.0857865 9.78921352,12.75 9.375,12.75 L8.625,12.75 C8.21078647,12.75 7.875,13.0857865 7.875,13.5 L7.875,15.75 L3.75,15.75 L3.75,3 C3.75,2.17157287 4.42157287,1.5 5.25,1.5 L12.75,1.5 C13.5784271,1.5 14.25,2.17157287 14.25,3 L14.25,15.75 L10.125,15.75 Z M6.75,3 C6.33578644,3 6,3.33578644 6,3.75 L6,4.5 C6,4.91421356 6.33578644,5.25 6.75,5.25 L7.5,5.25 C7.91421352,5.25 8.25,4.91421356 8.25,4.5 L8.25,3.75 C8.25,3.33578644 7.91421352,3 7.5,3 L6.75,3 Z M10.5,3 C10.0857865,3 9.75,3.33578644 9.75,3.75 L9.75,4.5 C9.75,4.91421356 10.0857865,5.25 10.5,5.25 L11.25,5.25 C11.6642135,5.25 12,4.91421356 12,4.5 L12,3.75 C12,3.33578644 11.6642135,3 11.25,3 L10.5,3 Z M6.75,6 C6.33578644,6 6,6.33578644 6,6.75 L6,7.5 C6,7.91421352 6.33578644,8.25 6.75,8.25 L7.5,8.25 C7.91421352,8.25 8.25,7.91421352 8.25,7.5 L8.25,6.75 C8.25,6.33578644 7.91421352,6 7.5,6 L6.75,6 Z M6.75,9 C6.33578644,9 6,9.33578648 6,9.75 L6,10.5 C6,10.9142135 6.33578644,11.25 6.75,11.25 L7.5,11.25 C7.91421352,11.25 8.25,10.9142135 8.25,10.5 L8.25,9.75 C8.25,9.33578648 7.91421352,9 7.5,9 L6.75,9 Z M10.5,9 C10.0857865,9 9.75,9.33578648 9.75,9.75 L9.75,10.5 C9.75,10.9142135 10.0857865,11.25 10.5,11.25 L11.25,11.25 C11.6642135,11.25 12,10.9142135 12,10.5 L12,9.75 C12,9.33578648 11.6642135,9 11.25,9 L10.5,9 Z" id="Combined-Shape" fill="#0E1519" fill-rule="nonzero"></path>
                        <rect id="Rectangle-Copy-2" fill="#FFFFFF" fill-rule="nonzero" x="9.75" y="6" width="2.25" height="2.25" rx="0.75"></rect>
                        <path d="M3,15.75 L15,15.75 C15.4142135,15.75 15.75,16.0857865 15.75,16.5 L15.75,16.8 C15.75,17.0485281 15.5485281,17.25 15.3,17.25 L2.7,17.25 C2.45147186,17.25 2.25,17.0485281 2.25,16.8 L2.25,16.5 C2.25,16.0857865 2.58578644,15.75 3,15.75 Z" id="Rectangle-2" fill="#0E1519" fill-rule="nonzero" opacity="0.3"></path>
                    </g>
                </g>
            </g>
        </g>
    </g>
</svg>