<?xml version="1.0" encoding="UTF-8"?>
<svg width="16px" height="16px" viewBox="0 0 16 16" version="1.1" xmlns="http://www.w3.org/2000/svg" xmlns:xlink="http://www.w3.org/1999/xlink">
    <!-- Generator: Sketch 53.1 (72631) - https://sketchapp.com -->
    <title>chat-1</title>
    <desc>Created with Sketch.</desc>
    <g id="Page-1" stroke="none" stroke-width="1" fill="none" fill-rule="evenodd">
        <g id="Calendar" transform="translate(-42.000000, -192.000000)">
            <g id="Sidebar" transform="translate(0.000000, 100.000000)">
                <g id="Message" transform="translate(40.000000, 91.000000)">
                    <g id="chat-1">
                        <rect id="bound" x="0" y="0" width="18" height="18"></rect>
                        <polygon id="Path-75" fill="#FFFFFF" opacity="0.800000012" points="3.75 11.25 2.25 16.125 7.125 14.625"></polygon>
                        <path d="M10.125,15.75 C6.18997116,15.75 3,12.5600288 3,8.625 C3,4.68997116 6.18997116,1.5 10.125,1.5 C14.0600288,1.5 17.25,4.68997116 17.25,8.625 C17.25,12.5600288 14.0600288,15.75 10.125,15.75 Z M6.375,9.75 C6.99632034,9.75 7.5,9.24632033 7.5,8.625 C7.5,8.00367967 6.99632034,7.5 6.375,7.5 C5.75367966,7.5 5.25,8.00367967 5.25,8.625 C5.25,9.24632033 5.75367966,9.75 6.375,9.75 Z M10.125,9.75 C10.7463203,9.75 11.25,9.24632033 11.25,8.625 C11.25,8.00367967 10.7463203,7.5 10.125,7.5 C9.50367967,7.5 9,8.00367967 9,8.625 C9,9.24632033 9.50367967,9.75 10.125,9.75 Z M13.875,9.75 C14.4963203,9.75 15,9.24632033 15,8.625 C15,8.00367967 14.4963203,7.5 13.875,7.5 C13.2536797,7.5 12.75,8.00367967 12.75,8.625 C12.75,9.24632033 13.2536797,9.75 13.875,9.75 Z" id="Combined-Shape" fill="#FFFFFF" fill-rule="nonzero"></path>
                    </g>
                </g>
            </g>
        </g>
    </g>
</svg>