<?xml version="1.0" encoding="UTF-8"?>
<svg width="36px" height="50px" viewBox="0 0 36 50" version="1.1" xmlns="http://www.w3.org/2000/svg" xmlns:xlink="http://www.w3.org/1999/xlink">
    <!-- Generator: Sketch 53.1 (72631) - https://sketchapp.com -->
    <title>Group 6</title>
    <desc>Created with Sketch.</desc>
    <defs>
        <filter x="-60.0%" y="-300.0%" width="220.0%" height="700.0%" filterUnits="objectBoundingBox" id="filter-1">
            <feGaussianBlur stdDeviation="4" in="SourceGraphic"></feGaussianBlur>
        </filter>
    </defs>
    <g id="Page-1" stroke="none" stroke-width="1" fill="none" fill-rule="evenodd">
        <g id="Contact" transform="translate(-670.000000, -1280.000000)">
            <g id="map" transform="translate(135.000000, 1081.000000)">
                <g id="Group-4" transform="translate(531.000000, 194.000000)">
                    <g id="Group-6">
                        <ellipse id="Oval" fill="#717171" filter="url(#filter-1)" cx="22" cy="44" rx="10" ry="2"></ellipse>
                        <g id="marker-2">
                            <rect id="bound" x="0" y="0" width="44" height="44"></rect>
                            <path d="M18.0185402,30.5370804 C12.8799288,28.8617186 9.16666667,24.0311654 9.16666667,18.3333333 C9.16666667,11.245679 14.9123457,5.5 22,5.5 C29.0876542,5.5 34.8333333,11.245679 34.8333333,18.3333333 C34.8333333,24.0311654 31.1200712,28.8617186 25.9814599,30.5370804 L22,38.5 L18.0185402,30.5370804 Z M22,22 C24.0250441,22 25.6666667,20.3583774 25.6666667,18.3333333 C25.6666667,16.3082893 24.0250441,14.6666667 22,14.6666667 C19.9749559,14.6666667 18.3333333,16.3082893 18.3333333,18.3333333 C18.3333333,20.3583774 19.9749559,22 22,22 Z" id="Combined-Shape" fill="#A32CFF" fill-rule="nonzero"></path>
                        </g>
                    </g>
                </g>
            </g>
        </g>
    </g>
</svg>