<?xml version="1.0" encoding="UTF-8"?>
<svg width="15px" height="14px" viewBox="0 0 15 14" version="1.1" xmlns="http://www.w3.org/2000/svg" xmlns:xlink="http://www.w3.org/1999/xlink">
    <!-- Generator: Sketch 53.1 (72631) - https://sketchapp.com -->
    <title>Combined-Shape</title>
    <desc>Created with Sketch.</desc>
    <g id="Page-1" stroke="none" stroke-width="1" fill="none" fill-rule="evenodd">
        <g id="Contact" transform="translate(-859.000000, -1949.000000)" fill="#FFFFFF" fill-rule="nonzero">
            <g id="Subscribe" transform="translate(0.000000, 1641.000000)">
                <g id="Group-3" transform="translate(543.000000, 288.000000)">
                    <g id="search-bar">
                        <g id="send" transform="translate(314.000000, 18.000000)">
                            <path d="M2.25,10.125 L14.25,9 L2.25,7.875 L2.25,2.8299696 C2.25,2.77691508 2.26125773,2.72446441 2.28302944,2.67608285 C2.36801874,2.48721773 2.59002163,2.40300974 2.77888676,2.48799904 L16.4900654,8.6580294 C16.5736358,8.69563613 16.6405426,8.76254288 16.6781492,8.84611328 C16.7631386,9.03497835 16.6789306,9.25698128 16.4900654,9.3419706 L2.77888676,15.5120009 C2.73050519,15.5337727 2.67805452,15.5450304 2.625,15.5450304 C2.41789322,15.5450304 2.25,15.3771372 2.25,15.1700304 L2.25,10.125 Z" id="Combined-Shape"></path>
                        </g>
                    </g>
                </g>
            </g>
        </g>
    </g>
</svg>