<?xml version="1.0" encoding="UTF-8"?>
<svg width="10px" height="11px" viewBox="0 0 10 11" version="1.1" xmlns="http://www.w3.org/2000/svg" xmlns:xlink="http://www.w3.org/1999/xlink">
    <!-- Generator: Sketch 53.1 (72631) - https://sketchapp.com -->
    <title>marker-1</title>
    <desc>Created with Sketch.</desc>
    <g id="Page-1" stroke="none" stroke-width="1" fill="none" fill-rule="evenodd" opacity="0.600000024">
        <g id="Job-page" transform="translate(-471.000000, -1729.000000)">
            <g id="Group-8-Copy-3" transform="translate(135.000000, 1554.000000)">
                <g id="Group-2" transform="translate(334.000000, 172.000000)">
                    <g id="marker-1" transform="translate(0.000000, 2.000000)">
                        <rect id="bound" x="0" y="0" width="14" height="14"></rect>
                        <path d="M2.91666667,6.125 C2.91666667,3.5 4.66666667,1.75 7.29166667,1.75 C9.91666667,1.75 11.6666667,3.9375 11.6666667,6.125 C11.6666667,7.48566134 10.3971358,9.354135 7.858074,11.730421 C7.53398438,12.0337337 7.03412815,12.0463193 6.69518237,11.759704 C4.1761719,9.62956826 2.91666667,7.75133362 2.91666667,6.125 Z M7.29166667,7 C8.09708194,7 8.75,6.34708194 8.75,5.54166667 C8.75,4.73625141 8.09708194,4.08333333 7.29166667,4.08333333 C6.48625139,4.08333333 5.83333333,4.73625141 5.83333333,5.54166667 C5.83333333,6.34708194 6.48625139,7 7.29166667,7 Z" id="Combined-Shape" fill="#000000" fill-rule="nonzero"></path>
                    </g>
                </g>
            </g>
        </g>
    </g>
</svg>