<?xml version="1.0" encoding="UTF-8"?>
<svg width="17px" height="14px" viewBox="0 0 17 14" version="1.1" xmlns="http://www.w3.org/2000/svg" xmlns:xlink="http://www.w3.org/1999/xlink">
    <!-- Generator: Sketch 53.1 (72631) - https://sketchapp.com -->
    <title>thunder-move</title>
    <desc>Created with Sketch.</desc>
    <g id="Page-1" stroke="none" stroke-width="1" fill="none" fill-rule="evenodd">
        <g id="Calendar" transform="translate(-40.000000, -241.000000)">
            <g id="Sidebar" transform="translate(0.000000, 100.000000)">
                <g id="Exercise" transform="translate(40.000000, 139.000000)">
                    <g id="thunder-move">
                        <rect id="Rectangle-10" x="0" y="0" width="18" height="18"></rect>
                        <path d="M12.2805283,14.9542075 L16.6669874,8.37451883 C16.8393106,8.11603395 16.7694629,7.76679495 16.510978,7.59447173 C16.4185775,7.53287138 16.3100107,7.5 16.1989592,7.5 L12.75,7.5 L12.75,3.3578113 C12.75,3.04715113 12.4981602,2.7953113 12.1875,2.7953113 C11.9994263,2.7953113 11.8237962,2.88930569 11.7194717,3.04579244 L7.33301257,9.62548118 C7.16068931,9.88396605 7.23053712,10.2332051 7.489022,10.4055283 C7.58142248,10.4671286 7.68998933,10.5 7.80104085,10.5 L11.25,10.5 L11.25,14.6421887 C11.25,14.9528489 11.5018398,15.2046887 11.8125,15.2046887 C12.0005737,15.2046887 12.1762038,15.1106943 12.2805283,14.9542075 Z" id="Path-3" fill="#FFFFFF"></path>
                        <path d="M3.375,3.75 L7.125,3.75 C7.74632033,3.75 8.25,4.25367966 8.25,4.875 C8.25,5.49632034 7.74632033,6 7.125,6 L3.375,6 C2.75367966,6 2.25,5.49632034 2.25,4.875 C2.25,4.25367966 2.75367966,3.75 3.375,3.75 Z M3.375,12.75 L7.125,12.75 C7.74632033,12.75 8.25,13.2536797 8.25,13.875 C8.25,14.4963203 7.74632033,15 7.125,15 L3.375,15 C2.75367966,15 2.25,14.4963203 2.25,13.875 C2.25,13.2536797 2.75367966,12.75 3.375,12.75 Z M1.875,8.25 L4.875,8.25 C5.49632034,8.25 6,8.75367967 6,9.375 C6,9.99632033 5.49632034,10.5 4.875,10.5 L1.875,10.5 C1.25367966,10.5 0.75,9.99632033 0.75,9.375 C0.75,8.75367967 1.25367966,8.25 1.875,8.25 Z" id="Combined-Shape" fill="#FFFFFF" fill-rule="nonzero" opacity="0.800000012"></path>
                    </g>
                </g>
            </g>
        </g>
    </g>
</svg>