<?xml version="1.0" encoding="UTF-8"?>
<svg width="14px" height="14px" viewBox="0 0 14 14" version="1.1" xmlns="http://www.w3.org/2000/svg" xmlns:xlink="http://www.w3.org/1999/xlink">
    <!-- Generator: Sketch 53.1 (72631) - https://sketchapp.com -->
    <title>user</title>
    <desc>Created with Sketch.</desc>
    <g id="Page-1" stroke="none" stroke-width="1" fill="none" fill-rule="evenodd">
        <g id="Calendar" transform="translate(-42.000000, -145.000000)">
            <g id="Sidebar" transform="translate(0.000000, 100.000000)">
                <g id="Account" transform="translate(40.000000, 43.000000)">
                    <g id="user">
                        <polygon id="Shape" points="0 0 18 0 18 18 0 18"></polygon>
                        <path d="M9,8.25 C7.34314575,8.25 6,6.90685425 6,5.25 C6,3.59314575 7.34314575,2.25 9,2.25 C10.6568543,2.25 12,3.59314575 12,5.25 C12,6.90685425 10.6568543,8.25 9,8.25 Z" id="Mask" fill="#FFFFFF" opacity="0.800000012"></path>
                        <path d="M2.25048876,15.1494041 C2.54119389,11.5698869 5.44643426,9.75 8.98750597,9.75 C12.5784123,9.75 15.5286628,11.4698947 15.7484357,15.15 C15.7571909,15.2966056 15.7484357,15.75 15.1850249,15.75 C12.405843,15.75 8.27604352,15.75 2.79562667,15.75 C2.60753411,15.75 2.23465369,15.344385 2.25048876,15.1494041 Z" id="Mask-Copy" fill="#FFFFFF"></path>
                    </g>
                </g>
            </g>
        </g>
    </g>
</svg>