<?xml version="1.0" encoding="UTF-8"?>
<svg width="129px" height="76px" viewBox="0 0 129 76" version="1.1" xmlns="http://www.w3.org/2000/svg" xmlns:xlink="http://www.w3.org/1999/xlink">
    <!-- Generator: Sketch 50.2 (55047) - http://www.bohemiancoding.com/sketch -->
    <title>Fill 7</title>
    <desc>Created with Sketch.</desc>
    <defs></defs>
    <g id="Page-1" stroke="none" stroke-width="1" fill="none" fill-rule="evenodd">
        <g id="VK_Logo-(1)" transform="translate(-32.000000, -61.000000)" fill="#4F78A3">
            <path d="M157.249,66.146 C158.138,63.18 157.249,61 153.015,61 L139.015,61 C135.455,61 133.814,62.883 132.924,64.959 C132.924,64.959 125.805,82.313 115.719,93.585 C112.456,96.848 110.973,97.886 109.193,97.886 C108.303,97.886 107.015,96.848 107.015,93.882 L107.015,66.146 C107.015,62.586 105.982,61 103.015,61 L81.015,61 C78.79,61 77.452,62.652 77.452,64.218 C77.452,67.592 82.495,68.371 83.015,77.863 L83.015,98.48 C83.015,103 82.199,103.82 80.419,103.82 C75.673,103.82 64.128,86.388 57.281,66.443 C55.939,62.566 54.593,61 51.015,61 L37.015,61 C33.015,61 32.215,62.883 32.215,64.959 C32.215,68.667 36.961,87.059 54.314,111.384 C65.883,127.995 82.183,137 97.015,137 C105.914,137 107.015,135 107.015,131.555 L107.015,119 C107.015,115 107.858,114.202 110.676,114.202 C112.752,114.202 116.312,115.24 124.618,123.249 C134.111,132.742 135.676,137 141.015,137 L155.015,137 C159.015,137 161.015,135 159.861,131.053 C158.599,127.119 154.066,121.412 148.053,114.647 C144.79,110.79 139.895,106.638 138.412,104.561 C136.335,101.891 136.929,100.704 138.412,98.331 C138.412,98.331 155.469,74.304 157.249,66.146" id="Fill-7"></path>
        </g>
    </g>
</svg>