<?xml version="1.0" encoding="UTF-8"?>
<svg width="20px" height="15px" viewBox="0 0 20 15" version="1.1" xmlns="http://www.w3.org/2000/svg" xmlns:xlink="http://www.w3.org/1999/xlink">
    <!-- Generator: Sketch 50.2 (55047) - http://www.bohemiancoding.com/sketch -->
    <title>Group</title>
    <desc>Created with Sketch.</desc>
    <defs>
        <polygon id="path-1" points="0.00681818182 0.00454545455 20 0.00454545455 20 14.0909091 0.00681818182 14.0909091"></polygon>
    </defs>
    <g id="Page-1" stroke="none" stroke-width="1" fill="none" fill-rule="evenodd">
        <g id="yt_icon_cymk">
            <g id="Group">
                <g id="Group-3">
                    <mask id="mask-2" fill="white">
                        <use xlink:href="#path-1"></use>
                    </mask>
                    <g id="Clip-2"></g>
                    <path d="M19.5820455,2.20034091 C19.3520455,1.33420455 18.6743182,0.652159091 17.8138636,0.420681818 C16.2542045,0 10,0 10,0 C10,0 3.74579545,0 2.18613636,0.420681818 C1.32568182,0.652159091 0.647954545,1.33420455 0.417954545,2.20034091 C0,3.77011364 0,7.04545455 0,7.04545455 C0,7.04545455 0,10.3206818 0.417954545,11.8905682 C0.647954545,12.7567045 1.32568182,13.43875 2.18613636,13.6703409 C3.74579545,14.0909091 10,14.0909091 10,14.0909091 C10,14.0909091 16.2542045,14.0909091 17.8138636,13.6703409 C18.6743182,13.43875 19.3520455,12.7567045 19.5820455,11.8905682 C20,10.3206818 20,7.04545455 20,7.04545455 C20,7.04545455 20,3.77011364 19.5820455,2.20034091" id="Fill-1" fill="#DA322A" mask="url(#mask-2)"></path>
                </g>
                <polyline id="Fill-4" fill="#FFFFFE" points="7.95454545 10.0192045 7.95454545 4.07170455 13.1818182 7.04556818 7.95454545 10.0192045"></polyline>
            </g>
        </g>
    </g>
</svg>