<?xml version="1.0" encoding="UTF-8"?>
<svg width="179px" height="117px" viewBox="0 0 179 117" version="1.1" xmlns="http://www.w3.org/2000/svg" xmlns:xlink="http://www.w3.org/1999/xlink">
    <!-- Generator: Sketch 49.1 (51147) - http://www.bohemiancoding.com/sketch -->
    <title>Everlast</title>
    <desc>Created with Sketch.</desc>
    <defs></defs>
    <g id="Page-1" stroke="none" stroke-width="1" fill="none" fill-rule="evenodd">
        <g id="Everlast" transform="translate(0.000000, -1.000000)" fill-rule="nonzero">
            <path d="M175.825,91.88775 C175.68,91.969375 175.4425,92.009875 175.12125,92.009875 L174.62875,92.009875 L174.62875,90.811125 L175.15,90.811125 C175.39625,90.811125 175.57875,90.8365 175.7025,90.882875 C175.92875,90.97325 176.04625,91.145625 176.04625,91.4005 C176.04625,91.6485 175.97125,91.809625 175.825,91.88775 Z M175.20125,92.412625 C175.60875,92.412625 175.9075,92.373625 176.105,92.293 C176.44625,92.15 176.62125,91.870625 176.62125,91.45325 C176.62125,91.15775 176.5075,90.938125 176.2925,90.80375 C176.18125,90.726625 176.01625,90.668 175.81125,90.642625 C176.07,90.59725 176.25875,90.489875 176.38,90.315 C176.50125,90.14075 176.55875,89.97125 176.55875,89.80475 L176.55875,89.562125 C176.55875,89.4815 176.56,89.3985 176.56875,89.313125 C176.57375,89.22125 176.585,89.1705 176.6025,89.13875 L176.625,89.099625 L176.07,89.099625 C176.0675,89.1095 176.06125,89.121625 176.06125,89.1265 C176.05375,89.13875 176.05375,89.16075 176.04875,89.1705 L176.04625,89.274 L176.04625,89.5425 C176.04625,89.92 175.93625,90.174875 175.73125,90.2935 C175.60375,90.36775 175.39125,90.3985 175.08125,90.3985 L174.62875,90.3985 L174.62875,89.099625 L174.04125,89.099625 L174.04125,92.412625 L175.20125,92.412625 Z M173.42875,92.580625 C172.9275,92.069375 172.675,91.4605 172.675,90.74375 C172.675,90.020125 172.9275,89.3985 173.42125,88.895625 C173.9275,88.38925 174.54,88.132875 175.2575,88.132875 C175.97625,88.132875 176.59,88.38925 177.08875,88.895625 C177.595,89.3985 177.845,90.020125 177.845,90.74375 C177.845,91.4605 177.595,92.069375 177.08875,92.580625 C176.58875,93.084 175.97375,93.340375 175.2575,93.340375 C174.5475,93.340375 173.9325,93.084 173.42875,92.580625 Z M177.38875,88.604125 C176.8025,88.020625 176.0925,87.72275 175.2575,87.72275 C174.4225,87.72275 173.715,88.020625 173.12625,88.604125 C172.5425,89.195875 172.255,89.90775 172.255,90.750125 C172.255,91.578625 172.5425,92.28575 173.13375,92.872625 C173.72375,93.457625 174.4275,93.748125 175.2575,93.748125 C176.0925,93.748125 176.8025,93.457625 177.38875,92.872625 C177.97375,92.290625 178.275,91.578625 178.275,90.750125 C178.275,89.90775 177.97375,89.197375 177.38875,88.604125 Z" id="path14" fill="#000" transform="translate(175.265000, 90.735437) scale(-1, 1) rotate(-180.000000) translate(-175.265000, -90.735437) "></path>
            <polyline id="path16" fill="#000000" transform="translate(164.406875, 45.735000) scale(-1, 1) rotate(-180.000000) translate(-164.406875, -45.735000) " points="175.56375 90.459625 175.59 75.1315 170.9 73.2575 170.9025 81.676875 167.67875 80.34875 167.69875 8.608125 170.39125 7.511875 170.39125 1.010375 157.97375 5.8395 157.97875 12.109 160.975 11.09925 160.9675 77.87425 157.7425 76.782875 157.7425 68.577375 153.22375 67.032875 153.23125 81.60225 175.56375 90.459625"></polyline>
            <path d="M150.96125,81.6099715 C150.96125,76.8819715 150.96125,68.8584715 150.96125,68.8584715 L145.83375,67.1627215 L145.83375,75.8775965 L142.0375,74.9400965 C142.0375,74.9400965 142.0375,65.2110965 142.0375,62.9537215 C142.0375,62.5948465 142.0275,62.0958465 142.22875,61.5343465 C143.88,56.9014715 151.70625,46.2593465 152.965,42.8330965 C153.0575,42.5718465 153.13125,41.8209715 153.13125,41.5782215 C153.13125,36.8320965 153.14125,15.6749715 153.14125,12.7183465 C153.14125,11.3169715 151.635,10.4317215 150.4675,10.6749715 C148.1825,11.1519715 141.5925,12.8633465 138.9675,13.6348465 C138.3875,13.8105965 137.29875,14.8594715 137.29875,16.2603465 C137.28875,19.9273465 137.29375,29.7154715 137.29375,29.7154715 L142.84125,28.4957215 L142.84,18.8438465 L146.485,17.9463465 C146.485,17.9463465 146.485,35.8223465 146.485,39.7690965 C146.485,40.0279715 146.405,40.6699715 146.3325,40.8565965 C145.0525,44.1548465 137.455,55.0630965 135.6925,59.1670965 C135.35875,59.9434715 135.30625,60.6212215 135.30625,61.2144715 C135.30625,64.7480965 135.30125,73.4337215 135.30125,76.9918465 C135.30125,78.2442215 136.45375,79.6309715 137.57,80.0279715 C139.77625,80.8189715 145.90375,82.6437215 148.8825,83.3043465 C149.91875,83.5347215 150.96125,82.7305965 150.96125,81.6099715" id="path18" fill="#000000" transform="translate(144.221250, 46.989361) scale(-1, 1) rotate(-180.000000) translate(-144.221250, -46.989361) "></path>
            <path d="M33.266625,78.63475 L33.266625,72.506375 L31.15875,73.019625 C31.15875,73.019625 34.34325,39.942 34.502,40.01425 C34.486375,39.99325 37.023875,71.664625 37.023875,71.664625 L35.143125,72.082125 L35.145,78.188 L45.389125,76.0635 L45.38425,70.027375 L43.353,70.395 L37.410625,11.321375 L31.391625,9.88975 L24.315,74.818875 L22.44875,75.351125 L22.44875,81.585 L33.266625,78.63475" id="path20" fill="#000000" transform="translate(33.918938, 45.737375) scale(-1, 1) rotate(-180.000000) translate(-33.918938, -45.737375) "></path>
            <polyline id="path22" fill="#000000" transform="translate(56.178750, 47.047938) scale(-1, 1) rotate(-180.000000) translate(-56.178750, -47.047938) " points="64.7275 76.0435 64.732375 63.104125 60.129375 63.57775 60.127 70.551375 56.664 70.959 56.664 53.1905 62.67575 53.20025 62.681625 46.61575 56.65875 46.61575 56.664 23.26375 60.3525 23.684625 60.36525 34.257375 65.69975 34.78375 65.69975 18.275 46.65775 15.771125 46.65775 21.7955 49.722625 22.287125 49.722625 71.93225 47.424375 72.301875 47.424375 78.32475 64.7275 76.0435"></polyline>
            <polyline id="path24" fill="#000000" transform="translate(99.795688, 47.227375) scale(-1, 1) rotate(-180.000000) translate(-99.795688, -47.227375) " points="102.65625 75.778375 102.649875 69.843375 99.86725 69.704125 99.873 25.24025 103.826625 25.019125 103.8315 36.43175 109.247125 36.13725 109.247125 18.676375 90.891125 19.579625 90.891125 25.5 93.15675 25.468375 93.169875 69.476125 90.34425 69.435625 90.34425 75.34775 102.65625 75.778375"></polyline>
            <path d="M76.478,52.323875 L76.478,69.117375 L80.701625,68.958125 L80.7065,52.323875 L76.478,52.323875 Z M88.931625,24.962 C87.13775,24.971875 87.11425,26.41175 87.11425,26.41175 C87.11425,29.633375 87.110875,40.1315 87.110875,43.366375 C87.07425,47.24725 84.772,48.126125 84.772,48.126125 C85.76175,48.861 87.05475,50.045 87.0615,51.940625 C87.059625,54.07825 87.05475,63.480125 87.05475,68.59 C86.911625,70.5245 86.537125,74.298 80.653375,74.82875 C78.721625,75.05 66.932625,75.656375 66.932625,75.656375 L66.932625,69.708125 L70.006375,69.47475 L69.98875,24.352625 L67.723125,24.190625 L67.731875,18.24425 L78.808625,18.886375 L78.79975,24.80675 L76.40475,24.718875 L76.40475,44.960625 C76.40475,44.967875 81.087375,44.962 81.087375,44.962 L81.09525,25.837 C81.253375,21.35125 81.50975,18.8 88.931625,19.054875 C88.931625,19.054875 88.938,24.949875 88.931625,24.962 Z" id="path26" fill="#000000" transform="translate(77.933542, 46.950313) scale(-1, 1) rotate(-180.000000) translate(-77.933542, -46.950313) "></path>
            <path d="M121.5195,39.382875 L123.07225,56.270625 C123.065,56.270625 124.78175,38.944875 124.78175,38.944875 L121.5195,39.382875 Z M135.20875,22.235875 L133.075,22.651 L125.74375,79.530875 L120.162625,78.713 L113.590375,25.468375 L111.3535,25.675875 L111.3565,19.735875 L122.059625,18.448375 L122.059625,24.454125 L120.289,24.6895 L120.934125,32.599625 L125.175,32.017625 L125.81125,23.902375 L123.879375,24.20025 L123.879375,18.185625 L135.20375,16.169 L135.20875,22.235875 Z" id="path28" fill="#000000" transform="translate(123.281125, 47.849937) scale(-1, 1) rotate(-180.000000) translate(-123.281125, -47.849937) "></path>
            <polyline id="path30" fill="#000000" transform="translate(10.642563, 46.981750) scale(-1, 1) rotate(-180.000000) translate(-10.642563, -46.981750) " points="20.481875 84.689 20.484875 70.587375 15.416 71.890125 15.416 80.086 11.449225 81.487375 11.449225 54.652375 18.69625 54.649 18.69625 47.1685 11.361325 47.164625 11.3711 12.442875 15.454125 13.8945 15.4575 27.21 21.28175 29.1875 21.285125 9.5245 0.013671875 0.996625 0.009765625 7.67 3.8193375 9.431625 3.80225 84.54 0.0048828125 86.274875 5.32907052e-15 92.966875 20.481875 84.689"></polyline>
            <path d="M133.61625,110.862776 C132.8825,110.917401 132.15,110.955526 131.405,110.984776 C131.3925,110.993151 127.68625,111.114151 125.73625,111.066401 C109.973125,110.740151 95.683625,106.263151 84.8105,99.249926 C84.108875,98.798276 83.251,98.8900635 82.874,99.039976 C81.117625,99.710401 72.812,102.845151 72.55175,102.941401 C72.2485,103.060026 71.564,103.156151 72.141625,103.915401 C73.44925,105.636651 75.7525,106.897901 77.589875,107.951151 C80.681625,109.727526 84.32325,111.149401 87.690375,112.300651 C86.76225,112.217651 86.3315,112.206526 85.7305,112.142026 C84.1235,111.966276 82.521,111.714276 80.9375,111.383776 C75.977,110.347651 70.69825,108.775276 66.314,106.175276 C65.598625,105.750401 64.646,106.105401 64.646,106.105401 L58.315375,108.389526 C58.315375,108.389526 57.25875,108.705526 58.3765,109.307526 C65.57125,113.201651 74.02925,115.902776 83.17775,117.256776 C84.246125,117.413026 85.316875,117.554651 86.40625,117.672776 C85.50875,117.732901 83.48875,117.848526 83.356,117.848526 C81.80325,117.903776 80.24175,117.913526 78.663625,117.880276 C64.899375,117.593651 52.249,114.174276 42.02975,108.610276 C41.624,108.377401 41.580125,107.812901 41.90825,107.681526 C46.46675,105.563401 85.983375,87.2968072 86.037125,87.277276 C86.484875,87.0673147 87.069375,87.3114557 87.34525,87.677666 C95.23925,98.024351 108.684125,105.982401 124.88375,109.462276 C127.71125,110.077526 130.6325,110.541401 133.61625,110.862776" id="path32" fill="#FDE134" transform="translate(87.653277, 102.549575) scale(-1, 1) rotate(-180.000000) translate(-87.653277, -102.549575) "></path>
        </g>
    </g>
</svg>