<?xml version="1.0" encoding="UTF-8"?>
<svg width="240px" height="224px" viewBox="0 0 240 224" version="1.1" xmlns="http://www.w3.org/2000/svg" xmlns:xlink="http://www.w3.org/1999/xlink">
    <!-- Generator: Sketch 50.2 (55047) - http://www.bohemiancoding.com/sketch -->
    <title>Jumpman_logo</title>
    <desc>Created with Sketch.</desc>
    <defs></defs>
    <g id="Page-1" stroke="none" stroke-width="1" fill="none" fill-rule="evenodd">
        <g id="Jumpman_logo" fill="#000000" fill-rule="nonzero">
            <path d="M130.377,15.32 C130.285,14.832 130.222,14.327 130.188,13.816 C129.695,6.733 135.027,0.591 142.11,0.092 C149.199,-0.402 155.34,4.937 155.834,12.02 C156.328,19.103 150.995,25.245 143.913,25.744 C143.465,25.778 143.022,25.784 142.587,25.767 C142.3,25.841 142.128,25.876 141.881,26.094 C141.152,27.23 143.735,27.018 141.979,31.983 C141.979,31.983 141.967,32.528 141.772,33.073 C141.634,34.979 140.9,40.627 140.796,43.635 C141.169,44.071 141.273,44.283 141.233,45.34 C141.066,46.769 140.739,50.271 140.211,52.515 C139.764,54.438 138.978,54.805 138.346,55.276 C137.456,59.26 137.221,62.56 134.937,67.399 C134.73,71.067 134.472,72.066 133.703,73.857 C133.617,79.258 133.99,80.062 130.346,88.614 C129.405,92.614 130.3,95.381 131.293,99.537 C132.309,103.808 135.127,105.593 135.546,109.967 C136.533,120.267 136.286,127.281 134.076,135.357 L136.005,139.926 C138.399,141.023 144.339,144.025 141.045,148.777 C145.683,151.216 152.691,153.805 158.471,158.748 C160.796,160.683 163.252,162.795 165.456,165.274 C169.652,165.928 169.204,166.261 172.315,168.172 C181.459,173.779 196.124,184.903 204.625,192.778 C206.089,193.633 206.686,194.248 207.868,194.868 C208.052,195.223 208.103,195.304 208.063,195.401 C207.656,196.429 207.672,196.458 207.305,197.278 C207.764,197.784 208.619,198.259 209.13,198.702 C209.607,198.851 209.607,198.622 210.428,198.421 C211.495,199.42 212.816,200.224 213.291,200.178 C214.738,199.81 214.491,200.109 215.714,198.742 C216.155,198.289 216.891,198.748 216.891,198.748 C217.35,198.209 218.337,197.135 219.652,196.36 C220.702,195.74 222.706,195.672 222.706,195.672 C223.377,195.678 223.251,196.366 223.193,196.59 C222.436,196.981 220.829,197.411 219.927,198.076 C217.964,200.108 216.426,202.847 216.426,202.847 C220.38,202.307 222.809,203.288 226.103,202.91 C227.9,202.807 229.226,202.922 231.114,201.556 C231.114,201.556 232.928,200.265 234.552,199.581 C236.131,198.893 237.629,199.26 239.018,200.27 C239.999,201.377 240.59,201.383 239.098,202.945 C238.559,203.553 237.778,204.23 236.785,205.212 C235.04,206.935 232.692,209.235 230.259,211.136 C227.796,213.059 225.001,214.786 223.256,215.578 C218.854,218.741 219.893,217.914 216.432,221.049 C215.995,221.439 214.836,222.139 214.274,222.512 C212.908,223.408 212.483,222.661 211.593,221.02 C211.593,221.02 211.185,220.406 210.514,219.097 C209.779,217.668 209.228,216.033 209.451,216.061 C208.631,215.957 204.939,211.629 204.929,210.7 C204.148,210.522 200.819,207.297 200.699,206.682 L197.749,204.317 C194.374,205.017 193.599,202.922 184.685,196.597 C183.669,196.579 182.097,196.029 179.846,194.359 C175.823,191.138 166.174,183.849 164.538,183.016 C162.781,182.121 160.681,181.278 159.394,180.215 C157.466,179.86 156.41,179.658 155.446,179.389 C154.459,179.119 153.563,178.769 151.066,178.436 C147.003,177.931 142.789,176.249 138.777,174.241 C136.878,173.34 135.224,172.881 133.589,172.179 C129.921,170.63 126.776,169.235 124.339,168.672 C123.409,168.58 118.989,167.254 116.671,165.9 C115.867,165.487 115.402,165.091 114.874,164.97 C113.657,164.689 112.876,165.171 112.326,165.355 C109.353,166.905 106.569,168.242 103.997,169.626 C101.603,170.906 99.399,172.237 97.063,173.581 C94.956,174.798 92.522,175.945 90.02,177.14 C90.02,177.14 82.885,180.716 78.988,182.105 C75.607,184.866 68.696,189.641 64.478,192.006 C62.389,192.999 58.331,195.57 56.459,196.145 C55.391,197.005 51.586,199.72 48.607,201.959 C46.305,203.681 44.566,205.133 44.566,205.133 C43.229,206.332 43.32,206.901 40.778,205.821 C40.072,206.401 39.527,206.762 39.073,207.095 C37.237,208.427 37.081,208.106 36.41,208.071 C35.13,209.179 34.969,208.605 33.85,209.88 C33.115,211.017 33.867,210.746 32.317,211.298 C31.99,211.424 31.835,211.819 31.583,212.038 C30.337,213.065 30.332,215.964 27.347,216.171 C25.619,217.404 26.061,218.892 24.741,218.828 C24.822,220.108 22.405,221.974 21.969,221.968 C18.163,223.282 17.899,220.482 13.33,222.571 C12.739,222.841 11.872,223.588 10.73,223.805 C8.721,224.184 6.293,223.787 4.812,222.64 C2.481,220.843 0.335,217.376 0.335,217.376 C-0.406,215.625 0.025,214.518 2.338,212.864 C3.302,212.25 3.48,211.791 5.099,211.681 C5.903,211.377 5.684,211.842 7.12,211.326 C7.952,211.027 7.952,211.24 9.628,211.097 C10.012,210.838 10.552,210.746 11.275,210.511 C12.601,210.075 13.893,209.587 13.893,209.587 C13.893,209.587 14.231,209.248 15.506,209.369 C16.585,208.927 17.693,208.272 18.261,208.071 C18.117,206.361 18.301,206.441 19.093,205.753 C20.08,204.903 20.258,205.041 20.993,205.569 C21.303,205.39 21.452,205.328 21.418,205.069 C21.297,204.179 20.534,203.76 20.764,201.798 C20.425,201.012 19.926,200.042 20.035,199.456 C20.196,198.824 20.351,198.52 20.735,198.319 C21.143,198.101 21.275,198.394 21.493,198.64 C21.883,199.094 22.199,200.437 22.199,200.437 C22.337,201.953 22.807,203.916 24.305,202.808 C25.189,201.912 25.361,199.525 27.163,200.036 L28.449,201.155 C29.54,200.128 29.592,200.128 30.246,199.715 C30.246,199.715 29.224,198.682 30.12,197.878 C30.734,197.332 31.474,196.942 32.789,195.484 C36.399,191.495 38.253,189.732 42.157,186.518 C49.946,180.112 58.808,175.618 64.439,173.385 C66.275,171.054 68.061,169.505 72.136,169.114 C76.98,160.934 86.256,153.628 88.386,152.463 C90.119,149.323 90.871,149.656 93.138,149.025 C94.934,147.585 95.342,147.585 96.146,146.081 C96.927,142.976 94.344,134.682 100.938,134.263 C102.339,132.283 101.989,132.759 103.55,130.888 C102.494,128.282 102.058,126.101 101.771,124.224 C101.719,124.006 99.154,122.198 99.882,119.838 C98.792,118.541 96.754,115.514 96.117,114.096 C95.825,114.102 95.583,113.992 95.262,113.947 C94.929,113.895 94.515,113.913 94.051,113.873 C93.024,116.524 91.905,116.72 90.079,117.305 C86.819,124.253 85.671,127.193 76.447,132.938 C72.785,137.037 71.614,141.605 71.631,141.537 C71,142.891 71.223,144.786 71.556,145.802 C71.074,147.306 71.2,147.455 71.2,147.455 C71.401,148.023 71.924,148.775 72.566,148.935 C73.674,149.228 74.782,149.182 74.718,150.416 C74.569,151.96 72.543,151.707 71.584,151.535 C67.893,150.949 69.059,148.544 66.699,149.347 C64.891,150.53 64.214,154.02 61.263,153.566 C60.873,153.308 60.993,152.545 61.257,151.994 C61.671,151.133 62.405,150.421 61.969,150.099 C60.052,150.702 56.206,151.976 56.206,151.976 C54.398,152.47 52.417,151.569 54.197,150.38 C55.024,150.059 56.206,149.657 57.664,148.722 C57.664,148.722 58.415,147.7 56.975,148.211 C55.402,148.774 53.083,149.123 51.419,148.94 C51.419,148.94 47.969,148.487 47.527,148.216 C47.079,147.946 46.672,146.879 47.751,146.885 C49.117,146.897 52.538,146.494 55.19,145.788 C56.47,145.289 58.904,143.849 60.27,143.171 C60.27,143.171 61.751,141.013 62.566,140.588 C63.926,139.021 65.074,138.097 66.279,136.495 C67.456,134.067 68.673,130.222 72.57,124.269 C74.372,121.525 76.611,118.329 79.429,115.472 C79.429,115.472 80.158,110.898 83.826,107.643 C84.636,105.737 85.864,103.493 87.075,101.415 C87.546,100.617 87.993,99.923 88.441,99.165 C89.578,97.38 90.772,94.057 95.203,93.534 C95.203,93.534 97.097,92.134 97.826,91.14 C98.963,90.17 98.704,88.661 99.628,87.598 C98.216,86.221 94.606,83.632 94.255,80.033 C93.882,76.216 95.242,73.076 97.55,70.752 C100.11,68.192 102.808,66.912 106.085,67.107 C110.177,67.715 110.952,69.07 112.255,70.413 C113.506,71.687 113.971,70.867 114.499,72.359 C117.932,73.272 117.742,72.87 117.713,75.396 C118.241,76.107 119.125,76.768 119.113,78.243 C120.267,75.849 120.496,75.408 123.579,72.773 C124.308,70.632 124.802,68.526 125.444,66.385 C126.044,64.405 126.791,62.367 127.37,60.834 C126.756,56.506 128.018,55.789 129.7,51.995 C129.402,51.473 129.466,51.324 129.592,50.468 C130.246,47.96 131.268,44.642 131.876,42.478 C131.876,42.478 132.077,41.617 132.967,41.554 C133.736,38.816 134.89,33.719 135.085,32.68 C135.877,29.816 135.366,28.897 134.758,27.284 C134.563,26.756 134.654,26.004 134.316,25.418 C133.358,23.748 132.325,21.578 131.625,20.028 C131.171,19.041 130.453,15.321 130.453,15.321 C129.843,13.42 130.377,15.32 130.377,15.32" id="Shape"></path>
        </g>
    </g>
</svg>