<?xml version="1.0" encoding="UTF-8"?>
<svg width="694px" height="354px" viewBox="0 0 694 354" version="1.1" xmlns="http://www.w3.org/2000/svg" xmlns:xlink="http://www.w3.org/1999/xlink">
    <!-- Generator: Sketch 50.2 (55047) - http://www.bohemiancoding.com/sketch -->
    <title>Puma_logo (1)</title>
    <desc>Created with Sketch.</desc>
    <defs></defs>
    <g id="Page-1" stroke="none" stroke-width="1" fill="none" fill-rule="evenodd">
        <g id="Puma_logo-(1)">
            <path d="M1.99999994e-06,256.09927 L1.99999994e-06,172.76468 L46.499902,172.76468 C72.65107,172.76468 95.61234,174.16287 98.96983,175.95974 C104.53075,178.93586 104.93986,182.93935 104.93986,234.38214 C104.93986,301.18801 105.91881,299.3098 71.098479,299.3098 C43.683036,299.3098 43.210529,299.73243 43.210529,324.25397 L43.210529,339.43386 L21.605265,339.43386 L1.99999994e-06,339.43386 L1.99999994e-06,256.09927 Z M58.64286,236.36746 C58.64286,202.65938 57.797109,194.70584 54.060241,193.27187 C46.197713,190.25473 43.210529,201.90369 43.210529,235.5819 C43.210529,272.06946 44.493409,277.70454 52.800145,277.70454 C58.241952,277.70454 58.64286,274.86813 58.64286,236.36746 Z M123.56725,333.46384 C121.60857,329.80403 120.37219,297.55621 120.37219,250.12925 L120.37219,172.76468 L143.52068,172.76468 L166.66918,172.76468 L166.66918,240.07703 C166.66918,291.67251 167.64085,308.71822 170.83065,313.08053 C180.40232,326.17058 182.10151,315.69138 182.10151,243.57125 L182.10151,172.76468 L205.25001,172.76468 L228.3985,172.76468 L228.3985,252.39551 C228.3985,310.21531 227.38404,333.0408 224.69474,335.7301 C222.13755,338.2873 206.40584,339.43386 173.87665,339.43386 C130.45494,339.43386 126.51189,338.96596 123.56725,333.46384 Z M243.83083,259.80303 C243.83083,201.98323 244.8453,179.15774 247.53459,176.46844 C252.79828,171.20476 398.44609,171.20476 403.70978,176.46844 C406.39908,179.15774 407.41354,201.98323 407.41354,259.80303 L407.41354,339.43386 L384.26505,339.43386 L361.11655,339.43386 L361.11655,266.67559 C361.11655,199.04401 360.73596,193.9905 355.71523,194.95586 C350.7847,195.90388 350.24169,202.2455 349.48542,267.71413 L348.65692,339.43386 L325.56531,339.43386 L302.47369,339.43386 L302.47369,268.82306 C302.47369,214.00048 301.56012,197.45406 298.38785,194.82131 C288.64311,186.73389 287.04136,197.2143 287.04136,269.06243 L287.04136,339.43386 L265.4361,339.43386 L243.83083,339.43386 L243.83083,259.80303 Z M425.93234,259.29433 C425.93234,183.22159 426.23531,178.99267 431.90237,175.95974 C440.53447,171.33998 522.47753,171.77754 527.16843,176.46844 C529.85773,179.15774 530.87219,201.98323 530.87219,259.80303 L530.87219,339.43386 L507.86471,339.43386 L484.85724,339.43386 L483.9446,318.60022 C483.24129,302.54468 481.97016,297.76657 478.40226,297.76657 C474.83437,297.76657 473.56324,302.54468 472.85993,318.60022 L471.94729,339.43386 L448.93982,339.43386 L425.93234,339.43386 L425.93234,259.29433 Z M483.03196,235.78004 C483.03196,202.40048 482.27859,195.91318 478.40226,195.91318 C474.59428,195.91318 473.61732,202.4549 472.89789,232.77109 C471.9705,271.84863 472.98644,278.9954 479.17552,276.93238 C481.99442,275.99274 483.03196,264.92105 483.03196,235.78004 Z" id="path1969" fill="#000000" fill-rule="nonzero"></path>
            <path d="M624.91603,267.09119 C622.96411,264.73926 619.55028,256.55732 618.87303,247.98313 C617.68332,232.92079 620.78393,234.01802 602.32813,215.4859 C587.44553,200.54173 577.76431,190.72467 571.07346,171.03914 C560.53688,140.03888 546.74915,131.91309 529.86559,131.91309 C514.23008,131.91309 489.33556,126.89864 476.01897,121.06688 C469.70763,118.30294 457.45924,109.65453 448.80036,101.84818 L433.05692,87.65483 L425.82507,93.34341 C416.22391,100.89568 402.70538,100.51827 382.34103,92.1294 C363.38493,84.32064 359.80786,84.80048 359.80786,90.2901 C359.80786,96.76123 354.78226,97.05453 347.60949,92.35476 C332.51534,82.46469 345.26231,66.36558 370.63269,67.62828 C385.73844,68.37268 386.45116,68.50461 386.45116,62.33389 C386.45116,55.03725 381.9494,52.45041 369.25142,52.45041 C363.80081,52.45041 359.04938,50.63953 354.30598,46.09506 C351.39591,44.34213 348.7972,42.97667 347.13421,38.98211 C348.51942,33.91148 349.94218,30.68374 352.64353,28.24538 C355.27041,23.12278 358.3878,17.59453 363.92843,14.0964 C367.11792,12.08267 370.22548,5.81099 372.65548,3.33755 C374.80511,1.14949 374.71447,0.46444 378.41525,3.51932 C382.21933,6.65949 383.69803,6.67655 387.37763,3.62276 C391.08708,0.54419 392.28215,0.64644 394.93103,4.26899 C396.66174,6.63588 402.92405,13.04263 411.55201,15.0709 C435.59763,20.72357 456.85489,33.42176 495.57755,65.36423 C544.91038,106.05902 549.82564,104.30516 573.25099,106.65598 C600.74346,109.41495 611.0842,99.19551 630.80458,55.70231 C643.7523,27.14615 652.13972,16.19525 667.79038,6.31543 C681.08443,-2.07676 692.68724,-2.39002 693.61105,7.0937 C694.4971,16.18911 694.39745,20.53677 674.80449,32.36138 C653.01485,45.51172 646.55815,52.21839 632.85351,80.60317 C625.79638,95.21974 617.22817,108.27505 610.99895,113.90279 L600.75254,123.15979 L607.56032,136.91583 C612.59972,147.09859 614.7032,156.59871 615.65815,173.48856 C617.43044,204.83508 615.32423,201.89335 625.90883,211.93783 C630.83077,216.60862 632.76218,212.87208 634.7635,222.27955 C636.66263,231.20662 637.15547,235.65324 641.29851,246.88042 C643.89042,253.90421 641.51599,249.84989 640.53541,259.77517 C639.78925,267.32766 641.56385,264.50388 638.26377,272.37758 C636.82483,275.81078 626.86797,269.44312 624.91603,267.09119 Z" id="path1989" fill="#000000" fill-rule="nonzero"></path>
            <g id="text2015" transform="translate(560.405890, 311.935140)" fill="#000000" font-family="Verdana" font-size="32" font-weight="normal">
                <text id="tspan2017">
                    <tspan x="0" y="32">R</tspan>
                </text>
            </g>
            <path d="M590.33607,332.813346 C590.338269,339.581551 586.728738,345.836571 580.867667,349.221309 C575.006596,352.606046 567.784824,352.606046 561.923753,349.221309 C556.062682,345.836571 552.453151,339.581551 552.45535,332.813346 C552.453151,326.045141 556.062682,319.790121 561.923753,316.405383 C567.784824,313.020646 575.006596,313.020646 580.867667,316.405383 C586.728738,319.790121 590.338269,326.045141 590.33607,332.813346 Z" id="path2029" stroke="#000000" stroke-width="4"></path>
        </g>
    </g>
</svg>