<svg width="75" height="75" viewBox="0 0 75 75" fill="none" xmlns="http://www.w3.org/2000/svg">
<path d="M13.2428 14.3613L61.9424 14.3614C66.7785 14.3614 70.8178 18.0067 71.26 22.7702C71.6256 26.7079 71.8084 31.0244 71.8084 35.7198C71.8084 41.2171 71.5579 46.715 71.0567 52.2136L71.0567 52.2136C70.622 56.9838 66.5798 60.6379 61.7377 60.6379L13.2428 60.6379C8.41363 60.6379 4.37776 57.0028 3.92679 52.2469C3.43653 47.0768 3.19141 42.1611 3.19141 37.4996C3.19141 32.8382 3.43653 27.9224 3.92679 22.7523H3.92679C4.37777 17.9965 8.41363 14.3613 13.2428 14.3613Z" fill="#FF0000"/>
<path d="M33.9939 46.8473L45.6976 39.0001C46.3035 38.5938 46.459 37.7827 46.0448 37.1884C45.9524 37.0558 45.8358 36.941 45.7008 36.85L33.9971 28.9533C33.3924 28.5453 32.565 28.6954 32.1491 29.2885C31.9966 29.5059 31.915 29.7635 31.915 30.0273V45.7712C31.915 46.4911 32.51 47.0747 33.244 47.0747C33.5116 47.0747 33.773 46.9954 33.9939 46.8473Z" fill="#F6F6F6"/>
</svg>
